<?xml version="1.0" encoding="utf-8"?>
<!DOCTYPE svg PUBLIC "-//W3C//DTD SVG 1.0//EN" "http://www.w3.org/TR/2001/REC-SVG-20010904/DTD/svg10.dtd">
<svg version="1.0" xmlns="http://www.w3.org/2000/svg" width="225px" height="225px" viewBox="0 0 225 225" preserveAspectRatio="xMidYMid meet">
 <g fill="#ffffff">
  <path d="M0 112.50 l0 -112.50 112.50 0 112.50 0 0 112.50 0 112.50 -112.50 0 -112.50 0 0 -112.50z m108.50 32 l0 -4.50 7.75 0 7.75 0 0 -17.75 0 -17.75 -1.25 0 -1.25 0 0 16.50 0 16.50 -6.50 0 -6.50 0 0 -9.75 c0 -9.40 -0.05 -9.75 -1 -9.75 -1 0 -1 0.35 -1 15.50 0 15.15 0 15.50 1 15.50 0.95 0 1 -0.35 1 -4.50z m42.50 0 l0 -4.50 24.75 0 24.75 0 0 -8.75 c0 -9.95 -0.35 -11.35 -3.25 -12.55 -0.95 -0.40 -3.30 -0.70 -5.25 -0.70 l-3.50 0 0 9.75 0 9.75 -4.25 0 -4.25 0 0 -9.75 0 -9.75 -2.40 0 c-1.55 0 -3.15 0.40 -4.70 1.25 -1.50 0.80 -3.15 1.25 -4.65 1.25 -2.05 0 -2.25 -0.10 -2.25 -1.25 0 -0.90 -0.25 -1.25 -1 -1.25 -0.95 0 -1 0.35 -1 9.75 l0 9.75 -6.50 0 -6.50 0 0 -9.75 0 -9.75 -1.25 0 -1.25 0 0 15.50 0 15.50 1.25 0 c1.25 0 1.25 -0.05 1.25 -4.50z m-106.15 3.20 c0.15 -0.40 -0.05 -1.10 -0.45 -1.50 -0.65 -0.65 -0.80 -0.65 -1.40 0 -0.50 0.65 -0.50 0.95 0 1.55 0.80 0.95 1.45 0.95 1.85 -0.05z m7.60 0.10 c0.85 -1 -0.65 -2.15 -1.70 -1.30 -0.60 0.50 -0.65 0.80 -0.20 1.30 0.30 0.40 0.75 0.70 0.95 0.70 0.20 0 0.65 -0.30 0.95 -0.70z m45.55 -16.05 c0 -8.75 -0.35 -10.60 -2.40 -12.40 -1.45 -1.35 -4.60 -1.65 -6.50 -0.65 -2.45 1.30 -3.10 3.05 -3.10 8.70 0 4.30 0.15 5.05 1 5.85 1 0.90 1 0.85 1 -5.90 0 -7.80 -0.15 -7.55 4.80 -7.25 l2.45 0.15 0.15 8.65 0.10 8.60 -9 0 -9 0 -0.05 -6.60 c-0.05 -7.95 -0.60 -10.20 -2.90 -11.75 -1.40 -0.95 -2.35 -1.15 -5.70 -1.15 l-4 0 0.25 9.75 0.25 9.75 -4.40 0 -4.45 0 0 -9.75 c0 -9.40 -0.05 -9.75 -1 -9.75 -0.95 0 -1 0.35 -1 9.75 l0 9.75 -9 0 -9 0 0 -7 c0 -7.40 -0.45 -9.40 -2.35 -11.15 -1.55 -1.35 -4.20 -1.60 -6.35 -0.60 -3 1.45 -3.30 2.55 -3.30 12.50 l0 8.75 36.75 0 36.75 0 0 -8.25z m36.50 -9.50 c0 -17.40 0 -17.75 -1 -17.75 -1 0 -1 0.35 -1 17.75 0 17.40 0 17.75 1 17.75 1 0 1 -0.35 1 -17.75z m-107.50 -10.75 c0.65 -0.40 0.65 -0.55 -0.10 -1.30 -0.70 -0.70 -1 -0.75 -1.65 -0.20 -0.60 0.50 -0.65 0.80 -0.20 1.30 0.65 0.80 0.95 0.85 1.95 0.20z m7.45 0.05 c0.85 -0.55 0.35 -2.05 -0.65 -2.05 -0.95 0 -1.45 0.85 -1.10 1.75 0.30 0.85 0.75 0.90 1.75 0.30z m55 -0.25 c0.45 -0.50 0.40 -0.80 -0.20 -1.30 -1.05 -0.85 -2.55 0.30 -1.70 1.30 0.30 0.40 0.75 0.70 0.95 0.70 0.20 0 0.65 -0.30 0.95 -0.70z m7.45 0.30 c0.75 -0.50 0.25 -2.10 -0.65 -2.10 -1.05 0 -1.80 1.25 -1.15 1.90 0.70 0.70 0.95 0.70 1.80 0.20z m51.95 -21.45 c-20 -0.10 -52.70 -0.10 -72.75 0 -20 0.05 -3.60 0.10 36.40 0.10 40 0 56.40 -0.05 36.35 -0.10z m-71.45 -9.50 c-5.15 -0.10 -13.70 -0.10 -19 0 -5.30 0.05 -1.10 0.10 9.35 0.10 10.45 0 14.80 -0.05 9.65 -0.10z m89.50 0 c-5.15 -0.10 -13.70 -0.10 -19 0 -5.30 0.05 -1.10 0.10 9.35 0.10 10.45 0 14.80 -0.05 9.65 -0.10z m-94.30 -9 c-2 -0.10 -5.15 -0.10 -7 0 -1.85 0.10 -0.20 0.15 3.65 0.15 3.85 0 5.35 -0.10 3.35 -0.15z m86.50 0 c-2 -0.10 -5.15 -0.10 -7 0 -1.85 0.10 -0.20 0.15 3.65 0.15 3.85 0 5.35 -0.10 3.35 -0.15z m-46.60 -15.15 c1.55 0 2.35 0.60 7.35 5.60 4.30 4.30 5.65 5.40 5.65 4.55 0 -0.65 1.40 -2.40 3.65 -4.60 2.90 -2.85 3.90 -3.55 5.15 -3.55 0.85 0 1.90 0.35 2.25 0.85 0.60 0.70 0.75 0.55 1.05 -1.40 0.15 -1.20 0.35 -7.30 0.35 -13.55 l0.05 -11.40 -25.50 0 -25.50 0 0.05 11.65 c0 6.35 0.15 12.50 0.35 13.55 0.30 1.75 0.45 1.85 1.05 1.15 0.35 -0.50 1.35 -0.85 2.20 -0.85 1.30 0 2.25 0.70 5.20 3.60 2.10 2.10 3.65 4.05 3.65 4.65 0 0.70 1.50 -0.55 5.65 -4.65 5 -5 5.80 -5.60 7.35 -5.60z"/>
  <path d="M166 130.25 c0 -6.30 0.10 -7.25 0.80 -7.25 0.45 0 2.30 -0.65 4.20 -1.50 1.90 -0.80 4.20 -1.50 5.20 -1.50 l1.80 0 0 8.75 0 8.75 -6 0 -6 0 0 -7.25z"/>
  <path d="M191.10 136.65 c-0.25 -0.50 -0.35 -4.45 -0.20 -8.80 l0.25 -7.90 3.55 0.15 3.55 0.15 0.15 8.65 0.10 8.60 -3.45 0 c-2.85 0 -3.60 -0.15 -3.95 -0.85z"/>
  <path d="M26.60 128.90 l0.15 -8.65 3.50 0 3.50 0 0.30 8.25 c0.20 4.55 0.25 8.40 0.10 8.65 -0.10 0.20 -1.90 0.35 -3.95 0.35 l-3.70 0 0.10 -8.60z"/>
  <path d="M67.85 137.15 c-0.20 -0.15 -0.35 -4.10 -0.35 -8.75 l0 -8.40 2.95 0 c4.85 0 4.55 -0.55 4.55 9.05 l0 8.45 -3.40 0 c-1.90 0 -3.60 -0.15 -3.75 -0.35z"/>
 </g>
 <g fill="#fbe7b6">
  <path d="M94.75 62 l-3.95 -4 -1.55 1.50 c-0.95 0.90 -2.10 1.50 -2.90 1.50 -1.25 0 -1.30 -0.10 -0.75 -1.05 0.40 -0.70 0.45 -1.15 0.15 -1.25 -0.30 -0.15 -0.45 -4.10 -0.40 -10.80 l0.10 -10.60 2.95 -2.90 2.90 -2.95 24 0 23.95 0.05 0.10 14.25 c0.05 10.40 0.20 14.50 0.65 15 0.55 0.65 0.40 0.75 -0.85 0.75 -1 0 -1.95 -0.55 -3.15 -1.75 l-1.70 -1.75 -4.05 4 c-5.65 5.60 -5.90 5.60 -12.60 -1.10 l-5.15 -5.15 -5.15 5.15 c-6.70 6.70 -7 6.75 -12.60 1.10z"/>
 </g>
 <g fill="#b1a291">
  <path d="M81 158.60 c0 -0.25 0.15 -0.60 0.35 -0.80 0.20 -0.20 0.40 -0.75 0.40 -1.20 0 -1 1.65 -1.40 2.40 -0.65 0.40 0.40 0.35 0.55 -0.25 0.55 -0.45 0 -0.90 0.35 -1.10 0.75 -0.20 0.50 0.05 0.75 0.70 0.75 0.55 0 1 0.25 1 0.50 0 0.30 -0.80 0.50 -1.75 0.50 -0.95 0 -1.75 -0.20 -1.75 -0.40z"/>
  <path d="M96.75 48 c-0.20 -0.35 5 -0.50 15.20 -0.50 10.05 0 15.55 0.20 15.55 0.50 0 0.70 -30.35 0.70 -30.75 0z"/>
  <path d="M96.85 43.65 c-0.20 -0.15 -0.10 -0.60 0.20 -1 0.45 -0.50 3.50 -0.65 14.75 -0.65 13.55 0 17.15 0.35 16.45 1.50 -0.35 0.55 -30.85 0.70 -31.40 0.15z"/>
 </g>
 <g fill="#c39542">
  <path d="M61 71.75 l0 -1.75 7.40 0 7.35 0 7.25 -7.25 c4 -4 7.45 -7.25 7.75 -7.25 0.25 0 2.55 2.05 5.10 4.60 3.95 3.95 4.70 4.50 5.35 3.90 1.40 -1.10 1 2.10 -0.35 3.40 -1.30 1.20 -4.40 1.60 -3.45 0.45 0.45 -0.50 -0.25 -1.50 -3.05 -4.25 l-3.60 -3.60 -6.75 6.75 -6.75 6.75 -8.10 0 -8.15 0 0 -1.75z"/>
  <path d="M141 66.75 l-6.75 -6.70 -3.65 3.55 c-2.85 2.80 -3.50 3.65 -3.05 4.20 1.05 1.30 -2.25 0.85 -3.45 -0.45 -1.30 -1.40 -1.60 -4.40 -0.30 -3.35 0.65 0.60 1.40 0.05 5.35 -3.90 2.55 -2.55 4.85 -4.60 5.10 -4.60 0.30 0 3.75 3.25 7.75 7.25 l7.25 7.25 7.35 0 7.40 0 0 1.75 0 1.75 -8.15 0 -8.10 0 -6.75 -6.75z"/>
 </g>
 <g fill="#31706d">
  <path d="M87 160.25 c0 -1.90 0.15 -2.25 1 -2.25 0.85 0 1 0.35 1 2.25 0 1.90 -0.15 2.25 -1 2.25 -0.85 0 -1 -0.35 -1 -2.25z"/>
  <path d="M33 117.80 c0 -0.95 0.20 -1.15 0.95 -0.95 0.55 0.15 1.35 0.70 1.85 1.20 0.85 0.90 0.80 0.95 -0.95 0.95 -1.60 0 -1.85 -0.15 -1.85 -1.20z"/>
  <path d="M41.20 85.55 c-1.45 -0.90 -2.70 -3.15 -2.70 -4.90 0 -1.70 1.65 -4.10 3.35 -4.90 2.40 -1.15 4.70 -0.65 6.75 1.50 l1.60 1.75 18.05 0 18 0 13.10 -13.10 13.15 -13.15 13.15 13.15 13.10 13.10 18.30 0 18.30 0 0.65 -1.25 c0.35 -0.65 1.40 -1.55 2.35 -2 4.80 -2.30 9.65 2.65 7.40 7.45 -1.95 4.05 -7.45 4.35 -9.95 0.60 l-0.80 -1.30 -18.90 0 -18.85 0 -12.35 -12.35 -12.40 -12.40 -12.40 12.40 -12.35 12.35 -18.85 0 -18.90 0 -0.80 1.30 c-1.75 2.65 -5.25 3.40 -8 1.75z m5.60 -2.75 c1.05 -1.65 0.75 -3.25 -0.85 -4.45 -3.05 -2.20 -6.35 1.40 -4.15 4.55 1.10 1.60 3.90 1.50 5 -0.10z m136.65 -0.40 c1.65 -2.90 -1.45 -6 -4.20 -4.20 -1.65 1.10 -2.10 3 -1 4.60 1.15 1.75 4.15 1.55 5.20 -0.40z"/>
 </g>
 <g fill="#1a4694">
  <path d="M31.50 169.50 c0 -0.25 0.50 -0.75 1.15 -1.05 0.60 -0.35 1.35 -0.95 1.70 -1.40 0.50 -0.65 0.60 -0.50 0.65 1.10 0 1.80 -0.05 1.85 -1.75 1.85 -0.95 0 -1.75 -0.20 -1.75 -0.50z"/>
  <path d="M34.20 164.50 c-0.30 -1.35 -0.55 -1.50 -2.10 -1.50 -1.70 0 -1.75 0 -0.85 -1 0.50 -0.55 1.15 -1 1.45 -1 0.80 0 3.30 3.10 3.30 4.15 0 1.50 -1.50 0.95 -1.80 -0.65z"/>
  <path d="M87 161.25 c0 -2.10 1.20 -2.45 1.70 -0.50 0.40 1.50 0.05 2.25 -1 2.25 -0.45 0 -0.70 -0.55 -0.70 -1.75z"/>
  <path d="M38.50 90.25 l0 -1.75 32.75 0 32.75 0 0 -3.65 c0 -3.05 -0.15 -3.85 -1 -4.60 -1.35 -1.20 -1.30 -3.50 0.10 -4.45 1.55 -1.10 2.55 -1 3.80 0.35 1.45 1.50 1.40 2.60 -0.15 4.15 -1.15 1.15 -1.30 1.60 -1.15 4.60 l0.15 3.35 2.90 0.15 2.85 0.15 0 -5.95 c0 -5.30 -0.10 -6.05 -1 -6.85 -0.55 -0.50 -1 -1.45 -1 -2.10 0 -1.40 1.65 -3.15 3 -3.15 1.35 0 3 1.75 3 3.15 0 0.65 -0.45 1.60 -1 2.10 -0.90 0.80 -1 1.55 -1 6.85 l0 5.95 2.90 -0.15 2.85 -0.15 0.15 -3.35 c0.15 -3 0 -3.45 -1.15 -4.60 -1.55 -1.55 -1.60 -2.80 -0.10 -4.20 1.40 -1.30 2.25 -1.35 3.75 -0.30 1.40 1 1.45 3.40 0.10 4.55 -0.85 0.75 -1 1.50 -1 4.50 l0 3.65 32.75 0 32.75 0 0 1.75 0 1.75 -74 0 -74 0 0 -1.75z m67.50 -11.55 c0.55 -0.60 0.55 -0.90 -0.10 -1.50 -0.90 -0.90 -2.40 -0.40 -2.40 0.75 0 1.65 1.40 2.10 2.50 0.75z m15.40 -0.50 c0.20 -1.30 -1.30 -2 -2.25 -1.05 -0.40 0.35 -0.55 1.05 -0.35 1.55 0.45 1.20 2.40 0.85 2.60 -0.50z m-7.55 -4 c0.15 -0.40 -0.10 -1.15 -0.55 -1.60 -0.75 -0.75 -0.85 -0.75 -1.60 0 -0.45 0.45 -0.70 1.20 -0.55 1.60 0.40 1.05 2.30 1.05 2.70 0z"/>
 </g>
 <g fill="#1d2e4a">
  <path d="M100 174.05 c0 -0.65 0.35 -0.90 1.25 -0.90 2.55 0 3.25 -1.35 3.25 -6.25 0 -4.05 0.10 -4.40 1 -4.40 0.85 0 0.95 0.40 1.10 3.40 0.15 3.05 0.25 3.35 1.30 3.50 0.65 0.10 1.25 -0.15 1.40 -0.60 0.35 -0.85 1.70 -1.10 1.70 -0.30 0 0.30 0.70 0.50 1.50 0.50 1.85 0 2.05 1.25 0.25 1.70 -1.50 0.40 -1.60 1.05 -0.25 1.90 1.35 0.85 1.25 1.40 -0.25 1.40 -0.90 0 -1.55 -0.45 -2.15 -1.50 -1.20 -2.10 -3.60 -2.10 -4.50 -0.10 -1.05 2.40 -5.60 3.70 -5.60 1.65z"/>
  <path d="M29.65 173.40 c-0.30 -0.35 -0.65 -1.05 -0.80 -1.50 -0.20 -0.55 -0.95 -0.90 -2.20 -1 -1.75 -0.15 -1.90 -0.30 -2.05 -1.75 -0.10 -0.95 0.05 -1.65 0.35 -1.65 0.30 0 0.55 0.30 0.55 0.70 0 0.70 1.05 1.30 2.30 1.30 0.40 0 0.70 -0.45 0.70 -1 0 -0.55 0.35 -1 0.75 -1 0.40 0 0.75 0.35 0.75 0.75 0 0.40 0.30 0.75 0.70 0.75 1.20 0 1.50 1.10 0.50 1.85 -0.95 0.70 -0.90 0.75 0.20 1.65 0.60 0.50 1.10 1.05 1.10 1.20 0 0.55 -2.40 0.30 -2.85 -0.30z"/>
  <path d="M73.60 170.95 c-0.65 -0.25 -1.75 -0.30 -2.40 -0.15 -1.10 0.30 -1.20 0.15 -1.15 -1.35 0 -0.95 0.15 -1.40 0.30 -1.05 0.30 0.75 2.25 0.80 3.05 0 0.35 -0.35 0.60 -1 0.60 -1.50 0 -0.50 0.35 -0.90 0.75 -0.90 0.85 0 1 1.15 0.25 2.55 -0.45 0.85 -0.35 0.95 0.90 0.95 1.60 0 2.10 -0.90 2.10 -3.60 0 -1.05 0.25 -1.40 1 -1.40 1.25 0 1.40 2.05 0.25 3.20 -0.40 0.40 -0.75 1.15 -0.75 1.65 0 2 -2.20 2.70 -4.90 1.60z"/>
  <path d="M81.70 170.45 c-0.45 -0.50 -0.75 -1 -0.65 -1.10 0.10 -0.05 1.25 -0.85 2.60 -1.75 1.85 -1.30 2.35 -1.50 2.35 -0.85 0 0.45 -0.50 1.25 -1.10 1.80 l-1.15 0.90 1.90 0.05 c2.20 0 2.60 1.30 0.50 1.65 -2.55 0.45 -3.55 0.30 -4.45 -0.70z"/>
  <path d="M193.10 170.15 c0.10 -0.60 0.70 -0.95 1.80 -1.05 1.75 -0.20 2.15 0.60 0.65 1.40 -1.50 0.80 -2.65 0.60 -2.45 -0.35z"/>
  <path d="M167.35 169.65 c-0.20 -0.15 -0.35 -0.95 -0.35 -1.75 0 -1.75 1.75 -2.05 1.85 -0.30 0.05 0.65 0.50 1.40 0.95 1.75 0.80 0.60 0.70 0.65 -0.60 0.65 -0.85 0 -1.70 -0.15 -1.85 -0.35z"/>
  <path d="M23.50 160 c0 -1.15 0.20 -1.50 1 -1.50 0.80 0 1 0.35 1 1.50 0 1.15 -0.20 1.50 -1 1.50 -0.80 0 -1 -0.35 -1 -1.50z"/>
  <path d="M41.55 149.20 c-1.25 -1.60 -1.30 -2.60 -0.25 -4.10 0.95 -1.40 3.70 -1.50 4.85 -0.20 1.15 1.25 1.05 3.40 -0.15 4.60 -1.40 1.40 -3.20 1.25 -4.45 -0.30z"/>
  <path d="M49.25 149.25 c-1.50 -1.45 -1.55 -2.25 -0.20 -3.95 2 -2.50 5.45 -1.20 5.45 2.10 0 1.05 -0.35 1.80 -1.10 2.30 -1.60 1.10 -2.75 1 -4.15 -0.45z"/>
  <path d="M105 133.50 l0 -17 2.50 0 2.50 0 0 9.75 0 9.75 5 0 5 0 0 -16.50 0 -16.50 2.75 0 2.75 0 0 19.25 0 19.25 -7.75 0 -7.75 0 0 4.50 0 4.50 -2.50 0 -2.50 0 0 -17z"/>
  <path d="M147 133.50 l0 -17 2.75 0 2.75 0 0 9.75 0 9.75 5 0 5 0 0 -9.75 0 -9.75 2.50 0 c2.35 0 2.50 0.10 2.50 1.25 0 0.80 0.30 1.25 0.75 1.25 0.45 0 1.85 -0.55 3.15 -1.25 1.90 -1 3.05 -1.25 6.20 -1.25 l3.90 0 0 9.75 0 9.75 2.75 0 2.75 0 0 -9.75 0 -9.75 5 0 c3.20 0 5.65 0.25 6.75 0.70 2.95 1.25 3.25 2.45 3.25 14.05 l0 10.25 -24.75 0 -24.75 0 0 4.50 0 4.50 -2.75 0 -2.75 0 0 -17z m29.45 -4.75 c0.05 -4 -0.05 -7.25 -0.25 -7.25 -0.15 0 -1.80 0.70 -3.70 1.50 -1.90 0.85 -3.75 1.50 -4.20 1.50 -0.70 0 -0.80 0.85 -0.80 5.75 l0 5.75 4.45 0 4.45 0 0.05 -7.25z m20.45 0.15 l-0.15 -7.15 -2.10 -0.15 -2.10 -0.15 -0.15 6.55 c-0.10 3.60 0.05 6.90 0.25 7.30 0.25 0.40 1.20 0.70 2.40 0.70 l2 0 -0.15 -7.10z"/>
  <path d="M23 131.25 c0 -11.50 0.25 -12.55 3.20 -13.95 2.40 -1.15 6.65 -1.05 8.70 0.20 2.60 1.60 3.10 3.45 3.10 11.50 l0 7 7.50 0 7.50 0 0 -9.75 0 -9.75 2.50 0 2.50 0 0 9.75 0 9.75 2.90 0 2.85 0 -0.15 -9.75 -0.15 -9.75 5.45 0 c8.95 0 10 1.35 10.05 12.90 l0.05 6.60 3.85 0 3.80 0 -1.05 -1.15 c-1 -1.05 -1.10 -1.70 -1.10 -7.55 0 -7.15 0.50 -8.75 3.10 -10.10 2.20 -1.15 7.90 -0.80 9.45 0.55 2.15 1.95 2.45 3.60 2.45 14 l0 9.75 -38.25 0 -38.25 0 0 -10.25z m9.55 -2.25 c-0.05 -3.70 -0.30 -6.95 -0.50 -7.15 -0.25 -0.25 -1.20 -0.35 -2.10 -0.25 l-1.70 0.15 -0.15 7.15 -0.15 7.15 2.35 -0.15 2.30 -0.15 -0.05 -6.75z m40.95 0.05 c0 -7.60 0 -7.55 -3.05 -7.55 l-1.45 0 0 6.90 c0 3.80 0.15 7.10 0.35 7.25 0.15 0.20 1.20 0.35 2.25 0.35 l1.90 0 0 -6.95z m20.40 -0.15 c-0.15 -7.75 -0.25 -7.95 -3.20 -7.20 -1.20 0.30 -1.20 0.35 -1.20 7.30 l0 7 2.25 0 2.30 0 -0.15 -7.10z"/>
  <path d="M131 122.25 l0 -19.25 2.50 0 2.50 0 0 19.25 0 19.25 -2.50 0 -2.50 0 0 -19.25z"/>
  <path d="M23.85 113.10 c-1.95 -2.15 -0.40 -5.60 2.45 -5.60 1.60 0 3.35 2.35 2.95 3.95 -0.60 2.45 -3.80 3.40 -5.40 1.65z"/>
  <path d="M31.50 113 c-2 -2 -0.55 -5.50 2.25 -5.50 2.85 0 4.25 3.55 2.15 5.50 -1.40 1.25 -3.10 1.30 -4.40 0z"/>
  <path d="M86.40 113.15 c-1.40 -1.60 -1.50 -2.90 -0.35 -4.30 1.20 -1.55 2.85 -1.75 4.45 -0.45 2.20 1.80 0.85 5.60 -2 5.60 -0.75 0 -1.70 -0.40 -2.10 -0.85z"/>
  <path d="M94.10 113.20 c-1.50 -1.05 -1.50 -3.85 0 -4.90 2.50 -1.75 5.75 0.05 5.20 2.90 -0.55 2.60 -3 3.55 -5.20 2z"/>
  <path d="M104.60 83.80 c0 -1.25 0.25 -2.15 0.50 -2 0.55 0.35 0.50 3.60 -0.10 3.95 -0.30 0.20 -0.50 -0.55 -0.40 -1.95z"/>
  <path d="M121.85 79.65 c-0.20 -0.15 -0.35 -0.80 -0.30 -1.35 0 -0.95 0.05 -0.95 0.50 0.15 0.50 1.20 0.40 1.80 -0.20 1.20z"/>
  <path d="M119.35 76.20 c-0.45 -0.50 0.10 -1.20 0.90 -1.20 0.45 0 0.60 0.30 0.45 0.75 -0.30 0.80 -0.85 0.95 -1.35 0.45z"/>
  <path d="M85.50 35.50 l0 -4 4.35 0 4.40 0 -4 4 c-2.20 2.20 -4.15 4 -4.35 4 -0.25 0 -0.40 -1.80 -0.40 -4z"/>
 </g>
 <g fill="#041339">
  <path d="M185.65 175.15 c-0.35 -0.15 -0.65 -0.55 -0.65 -0.95 0 -1 1.50 -1.50 2.05 -0.65 0.40 0.60 0.50 0.60 0.90 0 0.55 -0.85 2.05 -0.35 2.05 0.65 0 0.90 -1.25 1.35 -1.90 0.70 -0.40 -0.40 -0.75 -0.40 -1.20 -0.05 -0.35 0.30 -0.95 0.40 -1.25 0.30z"/>
  <path d="M30.30 173.90 c-1.25 -1.20 -2.20 -3.40 -1.40 -3.40 0.20 0 0.90 0.55 1.50 1.25 1.35 1.50 4.10 1.80 4.10 0.40 0 -1.80 -0.70 -2.20 -2.45 -1.60 -1.30 0.45 -1.75 0.45 -2.05 -0.10 -0.60 -0.95 -0.25 -1.30 1.75 -1.65 2.30 -0.45 3.15 -2.10 2.25 -4.30 -1.10 -2.65 -2.65 -1.70 -3.70 2.30 -0.70 2.70 -1.80 3.55 -1.80 1.35 0.05 -3.60 3.55 -8.05 5.30 -6.60 1.85 1.55 2.95 5.95 1.65 6.75 -0.40 0.20 -0.35 0.45 0.10 0.75 0.80 0.50 11.95 0.60 13.15 0.15 0.65 -0.25 0.80 -1.25 0.80 -5.50 0 -4.60 0.10 -5.20 0.90 -5.20 0.75 0 0.85 0.65 1 5.10 0.10 3.25 0.35 5.25 0.75 5.50 0.90 0.55 16.85 0.50 16.85 -0.05 0 -0.30 -0.20 -0.65 -0.50 -0.80 -0.95 -0.60 -0.55 -3.25 0.75 -4.50 1.50 -1.50 3.20 -1.60 4.95 -0.20 1.60 1.25 1.75 3.50 0.30 4.95 -0.55 0.55 -0.95 1 -0.85 1.05 0.05 0.05 0.85 0.10 1.75 0.20 1.35 0.10 1.75 -0.10 2.15 -1.10 1.30 -3.45 -0.60 -6.75 -4.25 -7.40 -1.35 -0.30 -1.80 -0.60 -1.70 -1.20 0.10 -0.55 0.60 -0.75 1.65 -0.65 4.20 0.45 6.95 3.60 6.45 7.35 -0.30 2.25 -1.80 4.60 -2.80 4.35 -1.05 -0.30 -23 -0.10 -23.50 0.20 -0.20 0.15 -1.10 -0.05 -1.90 -0.50 -0.85 -0.40 -1.60 -0.50 -1.80 -0.25 -0.15 0.25 -3.35 0.45 -7.15 0.45 l-6.90 0 0.25 1.25 c0.10 0.70 -0.05 1.60 -0.40 2 -0.95 1.15 -3.75 0.95 -5.20 -0.35z m43.60 -6.85 c0.35 -2.30 -2.80 -3.60 -3.90 -1.60 -0.70 1.35 -0.65 1.70 0.55 3 0.95 1 1.15 1.05 2.10 0.40 0.60 -0.40 1.15 -1.20 1.25 -1.80z"/>
  <path d="M98.15 174.40 c-0.65 -0.30 -1.35 -1.25 -1.60 -2.15 -0.60 -2.15 0 -5.45 1 -5.65 0.70 -0.10 0.75 0.25 0.55 2.35 -0.25 2.90 0.25 3.80 2.45 4.25 1.75 0.35 3.70 -0.75 4.10 -2.25 0.15 -0.60 0.50 -0.90 0.80 -0.70 0.95 0.55 0.60 1.80 -0.90 3.30 -1.60 1.55 -4.20 1.90 -6.40 0.85z"/>
  <path d="M110.80 173.45 c-1.35 -1.55 -1.70 -2.95 -0.80 -2.95 0.30 0 0.50 -0.20 0.50 -0.50 0 -0.25 -0.35 -0.50 -0.75 -0.50 -0.40 0 -0.75 0.35 -0.75 0.75 0 0.45 -0.45 0.75 -1.25 0.75 -0.70 0 -1.25 -0.25 -1.25 -0.55 0 -0.35 -0.35 -0.85 -0.80 -1.20 -0.65 -0.45 -0.85 -1.75 -1.05 -5.65 -0.20 -4.70 -0.15 -5.10 0.70 -5.10 0.85 0 0.95 0.50 0.90 5.40 l0 5.35 1.40 0.15 c0.80 0.10 1.45 -0.10 1.55 -0.50 0.10 -0.35 0.45 -1.60 0.75 -2.80 0.75 -2.65 3.05 -5.40 4.20 -4.95 2 0.75 3.80 6.20 2.35 7.10 -0.30 0.20 -0.40 0.55 -0.25 0.80 0.35 0.55 15.75 0.60 16.60 0.05 0.30 -0.20 0.70 -1.20 0.90 -2.25 0.25 -1.15 0.65 -1.85 1.10 -1.85 0.60 0 0.65 0.40 0.40 2 -0.30 1.80 -0.25 2 0.95 2.30 1.75 0.40 2.75 -0.50 3.10 -2.90 0.45 -2.55 1.50 -2.15 1.35 0.50 -0.10 2.25 0.85 3 2.85 2.35 0.85 -0.25 1 -0.75 1 -3.60 0 -4 1 -4.15 1.70 -0.20 0.80 4.50 -1.35 6.85 -4.95 5.35 -0.95 -0.40 -1.85 -0.55 -2 -0.35 -0.45 0.80 -2.20 0.95 -3.40 0.30 -0.75 -0.40 -1.50 -0.45 -1.90 -0.20 -0.40 0.25 -4.45 0.45 -9 0.45 l-8.30 0 0.25 1.25 c0.30 1.80 -0.70 2.75 -2.90 2.75 -1.50 0 -2.20 -0.30 -3.20 -1.55z m4.70 -1.30 c0 -1.75 -0.65 -2.15 -2.65 -1.60 -2.05 0.55 -2.30 1.15 -0.95 1.90 1.45 0.85 3.60 0.65 3.60 -0.30z m-1.20 -4.40 c1.30 -1.30 1.30 -2.75 -0.05 -4.20 -0.85 -0.90 -1.70 -0.30 -2.55 1.75 -1.50 3.65 0 5.05 2.60 2.45z"/>
  <path d="M81.95 170.80 c-0.80 -0.85 -0.50 -1.75 0.95 -2.50 0.75 -0.40 1.80 -1.20 2.35 -1.80 l1 -1.10 -2.15 -1.95 c-2 -1.90 -2.35 -2.95 -0.90 -2.95 0.35 0 1.15 0.55 1.80 1.25 0.65 0.70 1.35 1.25 1.60 1.25 0.20 0 0.40 -1.25 0.40 -2.75 0 -2.40 0.15 -2.75 1 -2.75 0.90 0 0.95 0.30 0.70 3.80 -0.20 3.40 -0.10 3.95 0.80 4.80 1.10 1.05 1.35 3.50 0.40 4.30 -0.85 0.65 -7.30 1 -7.95 0.40z m6.90 -2.10 c0.15 -0.40 -0.05 -1.15 -0.50 -1.60 -0.75 -0.70 -0.90 -0.70 -1.70 0 -0.50 0.40 -1.55 1.15 -2.40 1.55 l-1.50 0.80 2.90 0.05 c2.15 0 2.95 -0.20 3.20 -0.80z"/>
  <path d="M149.35 171.15 c-0.60 -0.55 -0.40 -10.05 0.20 -10.40 0.30 -0.20 0.65 -0.25 0.75 -0.10 0.20 0.20 0.35 6.75 0.20 10.25 0 0.65 -0.65 0.80 -1.15 0.25z"/>
  <path d="M158.30 170.45 c-2.15 -1.70 -1.80 -3.60 1.25 -6.55 2.95 -2.85 3.40 -2.75 4.65 1.30 0.80 2.45 0.80 2.85 0.10 4.20 -1.15 2.25 -3.85 2.75 -6 1.05z m4.60 -2.50 c0.10 -0.70 -0.10 -1.85 -0.35 -2.60 -0.45 -1.20 -0.70 -1.30 -1.55 -0.85 -3.05 1.65 -2.95 5.20 0.15 4.90 1.30 -0.10 1.65 -0.40 1.75 -1.45z"/>
  <path d="M24.30 169.90 c-0.55 -0.80 -0.80 -2.30 -0.80 -5.15 0 -4.65 0.35 -6.25 1.30 -6.25 0.50 0 0.70 1.25 0.80 5.40 0.15 5.10 0.20 5.35 1.30 5.50 1.70 0.25 1.40 1.60 -0.35 1.60 -1 0 -1.75 -0.40 -2.25 -1.10z"/>
  <path d="M167.85 170.10 c-0.70 -0.75 -0.85 -2 -0.85 -6.30 0 -4.75 0.10 -5.35 0.85 -5.20 0.70 0.15 0.85 0.85 0.80 4.90 0 2.60 0.20 5.05 0.50 5.40 0.35 0.45 2.65 0.60 8.30 0.60 8.75 0 9.40 -0.20 9.65 -3 0.10 -1.15 0.40 -1.75 0.90 -1.75 0.55 0 0.70 0.50 0.60 2.10 -0.15 2.05 -0.10 2.10 1.60 2.40 0.95 0.20 2.45 0.20 3.40 0 2.20 -0.50 5.40 -1.80 5.40 -2.20 0 -0.60 -3.95 -2.55 -5.20 -2.55 -1.80 0 -2.10 -0.90 -0.50 -1.50 1.35 -0.55 1.30 -0.55 6.60 2.30 0.85 0.50 1.60 1.20 1.60 1.55 0 0.40 -1.60 1.45 -3.60 2.40 -3.85 1.85 -8.10 2.35 -9.30 1.15 -0.45 -0.45 -0.75 -0.45 -1.20 0 -0.40 0.40 -3.30 0.60 -9.65 0.60 -8.20 0 -9.20 -0.10 -9.90 -0.90z"/>
  <path d="M160.15 160.15 c-0.75 -0.25 -0.85 -1.95 -0.20 -2.35 0.25 -0.15 0.70 0.05 1.05 0.45 0.70 0.80 0.05 2.20 -0.85 1.90z"/>
  <path d="M162.25 159.50 c-0.40 -0.70 0.15 -1.50 1.05 -1.50 0.40 0 0.70 0.45 0.70 1 0 1.05 -1.20 1.40 -1.75 0.50z"/>
  <path d="M80.70 158.95 c-0.10 -0.20 0.15 -0.60 0.55 -0.95 0.35 -0.30 0.60 -0.85 0.45 -1.25 -0.40 -0.95 0.65 -1.40 2.20 -1 l1.35 0.40 -1.20 0.30 c-1.70 0.45 -1.95 1.55 -0.35 1.55 0.70 0 1.30 0.20 1.30 0.45 0 0.50 -4 1 -4.30 0.50z"/>
  <path d="M147.50 159.35 c0 -0.40 1.60 -3.35 1.90 -3.55 0.20 -0.10 0.80 0 1.35 0.20 0.90 0.35 0.85 0.45 -0.50 0.95 -1.15 0.50 -1.30 0.70 -0.75 1.05 0.40 0.30 1.15 0.50 1.65 0.50 0.45 0 0.85 0.25 0.85 0.50 0 0.30 -1 0.50 -2.25 0.50 -1.25 0 -2.25 -0.10 -2.25 -0.15z"/>
  <path d="M41.75 149.50 c-1.95 -2.15 -0.70 -5.50 2.10 -5.50 1.30 0 3.15 1.60 3.15 2.75 0 1.10 -1.10 3.25 -1.70 3.25 -0.30 0 -1 0.15 -1.55 0.30 -0.70 0.15 -1.35 -0.10 -2 -0.80z m3.20 -1.80 c0.10 -0.55 0.40 -1.10 0.75 -1.35 0.35 -0.25 0.25 -0.60 -0.40 -1.10 -2.55 -1.95 -4.90 0.45 -3.20 3.20 0.70 1.15 2.55 0.65 2.85 -0.75z"/>
  <path d="M105 133.50 c0 -14.40 0.10 -17 0.70 -17 0.60 0 0.65 0.35 0.25 1.60 -0.65 2.25 -0.60 30.25 0.05 30.65 0.75 0.45 0.60 1.10 -0.25 1.45 -0.65 0.25 -0.75 -1.80 -0.75 -16.70z"/>
  <path d="M108.05 149.15 c0.25 -0.70 0.45 -2.65 0.45 -4.45 0 -2.55 0.15 -3.20 0.75 -3.20 0.65 0 0.75 0.70 0.65 4.35 -0.15 4 -0.20 4.30 -1.25 4.40 -0.90 0.05 -1 -0.10 -0.60 -1.10z"/>
  <path d="M147 149.15 c0 -1.05 0.15 -1.10 1 -0.65 0.55 0.30 1 0.75 1 1.05 0 0.30 0.35 0.20 0.75 -0.25 0.40 -0.40 0.75 -0.95 0.75 -1.20 0 -0.25 0.45 -0.60 1 -0.75 0.80 -0.20 0.95 0 0.85 1.20 -0.05 0.80 -0.20 1.45 -0.35 1.50 -0.15 0 -1.30 0.10 -2.60 0.20 -2.25 0.10 -2.40 0.05 -2.40 -1.10z"/>
  <path d="M49.35 149.65 c-0.75 -0.70 -0.30 -1.25 0.80 -0.95 0.70 0.15 1.60 -0.05 2.15 -0.45 1.85 -1.40 3 -0.60 1.40 0.95 -0.75 0.80 -3.75 1.10 -4.35 0.45z"/>
  <path d="M49.20 145.10 c1.20 -1.40 3.35 -1.45 4.55 -0.10 0.80 0.90 0.80 1 0.10 1 -0.50 0 -0.85 -0.20 -0.85 -0.45 0 -0.85 -2.15 -0.95 -3.45 -0.15 l-1.30 0.80 0.95 -1.10z"/>
  <path d="M23 131 l0 -10.45 1.55 -1.80 c0.85 -0.95 1.90 -1.75 2.40 -1.75 0.50 0 0.30 0.35 -0.65 0.95 -2.60 1.70 -2.75 2.55 -2.80 12.35 0 5.95 0.20 9.20 0.55 9.55 0.30 0.30 0.40 0.80 0.25 1.10 -1.05 1.65 -1.30 -0.25 -1.30 -9.95z"/>
  <path d="M34.15 141.15 c-1 -0.40 -0.75 -1.15 0.35 -1.15 0.55 0 1 0.20 1 0.45 0 0.25 0.50 0.60 1.15 0.70 0.80 0.15 0.75 0.20 -0.40 0.25 -0.80 0 -1.80 -0.10 -2.10 -0.25z"/>
  <path d="M66.15 141.15 c-1 -0.40 -0.75 -1.15 0.35 -1.15 0.55 0 1 0.20 1 0.45 0 0.25 0.50 0.60 1.15 0.70 0.80 0.15 0.75 0.20 -0.40 0.25 -0.80 0 -1.80 -0.10 -2.10 -0.25z"/>
  <path d="M75.75 140.95 c-0.20 -0.30 -0.20 -0.65 0 -0.85 0.15 -0.15 0.45 -0.05 0.65 0.25 0.20 0.30 0.80 0.65 1.35 0.80 0.80 0.20 0.70 0.25 -0.35 0.30 -0.75 0 -1.50 -0.20 -1.65 -0.50z"/>
  <path d="M94 141.15 c0.40 -0.15 0.90 -0.55 1.10 -0.85 0.25 -0.35 0.40 -0.20 0.40 0.35 0 0.55 -0.35 0.85 -1.10 0.80 -0.80 0 -0.90 -0.10 -0.40 -0.30z"/>
  <path d="M96 141.25 c0 -0.55 1.70 -1.75 2.55 -1.75 0.85 0 1.45 1.45 0.60 1.55 -0.25 0 -1 0.10 -1.75 0.20 -0.80 0.10 -1.40 0.10 -1.40 0z"/>
  <path d="M131 122.30 l0 -19.30 2.50 0 2.50 0 -0.10 19.05 -0.15 19.10 -1.40 0.15 c-1.40 0.15 -1.40 0.10 -0.65 -1.05 0.70 -1.05 0.80 -3.65 0.80 -18.75 0 -15.80 -0.10 -17.55 -0.80 -17.85 -2.05 -0.75 -2.20 0.65 -2.05 18.55 0.10 9.40 0.25 17.50 0.40 18 0.10 0.50 -0.10 1.05 -0.40 1.15 -0.50 0.20 -0.65 -3.85 -0.65 -19.05z"/>
  <path d="M163.85 141.15 c-0.60 -0.55 -0.40 -1.15 0.40 -1.15 0.40 0 0.75 0.20 0.75 0.45 0 0.25 0.50 0.60 1.15 0.70 0.85 0.15 0.75 0.25 -0.45 0.30 -0.85 0 -1.70 -0.10 -1.85 -0.30z"/>
  <path d="M177.85 141.15 c-0.60 -0.55 -0.40 -1.15 0.40 -1.15 0.40 0 0.75 0.20 0.75 0.45 0 0.25 0.50 0.60 1.15 0.70 0.85 0.15 0.75 0.25 -0.45 0.30 -0.85 0 -1.70 -0.10 -1.85 -0.30z"/>
  <path d="M189.40 141.15 c-1.45 -0.35 -1 -1.15 0.60 -1.15 0.85 0 1.50 0.20 1.50 0.45 0 0.25 0.50 0.60 1.15 0.70 0.65 0.15 0.40 0.20 -0.65 0.20 -0.95 0.05 -2.15 -0.05 -2.60 -0.20z"/>
  <path d="M197.10 140.80 c0.35 -0.40 0.75 -0.55 0.90 -0.35 0.15 0.15 0.45 0.45 0.70 0.70 0.25 0.20 -0.15 0.35 -0.90 0.35 -1.10 0 -1.25 -0.10 -0.70 -0.70z"/>
  <path d="M200.40 141.15 c-1 -0.25 -1.15 -0.70 -0.40 -1.45 0.25 -0.25 0.55 -4.65 0.60 -9.95 l0.15 -9.45 -1.25 -1.35 c-0.70 -0.70 -1.60 -1.45 -2 -1.60 -0.50 -0.20 -0.45 -0.30 0.30 -0.30 0.55 -0.05 1.65 0.65 2.50 1.50 l1.45 1.50 0.15 10.30 c0.10 5.65 0 10.45 -0.25 10.65 -0.20 0.15 -0.80 0.25 -1.25 0.15z"/>
  <path d="M122.50 140.55 c0 -0.45 1.20 -1.05 2.05 -1.05 0.25 0 0.45 0.35 0.45 0.75 0 0.45 -0.45 0.75 -1.25 0.75 -0.70 0 -1.25 -0.20 -1.25 -0.45z"/>
  <path d="M26.60 128.50 c0 -5.75 0.10 -7 0.70 -7 0.55 0 0.70 1.30 0.70 7 0 5.60 -0.15 7 -0.70 7 -0.55 0 -0.65 -1.45 -0.70 -7z"/>
  <path d="M53.10 126.15 c-0.10 -8.60 0 -9.65 0.70 -9.65 0.65 0 0.70 0.15 0.25 0.65 -0.30 0.40 -0.60 4.10 -0.70 9.65 l-0.10 8.95 -0.15 -9.60z"/>
  <path d="M56.40 126 c-0.15 -8.75 -0.10 -9.50 0.75 -9.50 0.80 0 0.85 0.80 0.85 9.50 0 8 -0.10 9.50 -0.75 9.50 -0.60 0 -0.75 -1.60 -0.85 -9.50z"/>
  <path d="M108.50 126.30 c0 -6.90 -0.15 -9.30 -0.60 -9.45 -0.35 -0.15 -0.05 -0.30 0.75 -0.30 l1.35 -0.05 0 9.50 c0 8.10 -0.10 9.50 -0.75 9.50 -0.65 0 -0.75 -1.35 -0.75 -9.20z"/>
  <path d="M187.35 135.15 c-0.60 -0.55 -0.40 -18.05 0.20 -18.40 0.80 -0.55 1.15 0.15 0.50 0.95 -0.45 0.55 -0.55 3.10 -0.45 9.25 0.10 4.70 0.15 8.55 0.10 8.55 0 0 -0.20 -0.15 -0.35 -0.35z"/>
  <path d="M197 129.05 c0 -3.55 -0.15 -6.90 -0.30 -7.40 -0.25 -0.70 -0.20 -0.75 0.25 -0.35 0.70 0.60 1.10 14.20 0.45 14.20 -0.25 0 -0.40 -2.90 -0.40 -6.45z"/>
  <path d="M36.55 128.40 c0.05 -3.65 0.20 -6.95 0.35 -7.35 0.60 -1.60 1.05 1.45 1.05 7.60 0.05 5.45 -0.05 6.35 -0.75 6.35 -0.65 0 -0.75 -0.90 -0.65 -6.60z"/>
  <path d="M67.50 134.50 c0 -0.25 0.35 -0.50 0.75 -0.50 0.40 0 0.75 0.25 0.75 0.50 0 0.30 -0.35 0.50 -0.75 0.50 -0.40 0 -0.75 -0.20 -0.75 -0.50z"/>
  <path d="M168 123.60 c0 -0.60 2.30 -1.60 3.55 -1.60 0.55 0 0.85 -0.20 0.70 -0.50 -0.15 -0.25 -0.10 -0.50 0.20 -0.50 0.25 0 0.80 -0.15 1.25 -0.30 1.65 -0.65 0.75 1.15 -1.15 2.20 -1.95 1.10 -4.55 1.50 -4.55 0.70z"/>
  <path d="M98.25 121.10 c-0.25 -0.20 -0.50 -0.65 -0.55 -0.95 -0.10 -1.35 -0.25 -1.55 -1.70 -2.15 -0.80 -0.35 -1.50 -0.80 -1.50 -1.05 0 -0.80 2.80 0.95 3.70 2.30 0.90 1.35 0.90 2.50 0.05 1.85z"/>
  <path d="M77 119.65 c-0.60 -0.80 -1.55 -1.65 -2.15 -2 -0.60 -0.35 -0.80 -0.60 -0.45 -0.65 1.10 0 3.45 1.90 3.75 3 0.35 1.35 0.15 1.25 -1.15 -0.35z"/>
  <path d="M85.05 120.25 c0 -0.80 1.10 -2.05 2.45 -2.70 l1.25 -0.60 -1.20 1.05 c-0.70 0.60 -1.50 1.45 -1.90 1.90 -0.35 0.45 -0.60 0.65 -0.60 0.35z"/>
  <path d="M35.40 118.85 c-0.70 -0.65 -1.70 -1.35 -2.15 -1.55 -0.50 -0.15 -0.75 -0.45 -0.60 -0.60 0.35 -0.35 3 1.05 3.85 2.05 1.05 1.30 0.25 1.35 -1.10 0.10z"/>
  <path d="M150.35 117.25 c-0.25 -0.55 0 -0.75 0.95 -0.75 0.80 0 1.20 0.25 1.10 0.65 -0.35 0.90 -1.75 1 -2.05 0.10z"/>
  <path d="M24.10 113 c-1.75 -1.65 -1.25 -5 0.75 -5 0.40 0 0.30 0.35 -0.35 1 -1.25 1.25 -1.25 2.05 0 3.15 1.10 0.95 2 1.10 2 0.40 0 -0.25 0.45 -0.65 1 -0.80 1.15 -0.35 1.25 -1 0.40 -2 -2.20 -2.45 -2.20 -3 0 -1.45 2.20 1.50 0.95 5.70 -1.70 5.70 -0.55 0 -1.50 -0.45 -2.10 -1z"/>
  <path d="M32.15 113.40 c-1.30 -0.65 -1.50 -1.40 -0.40 -1.40 0.40 0 0.75 0.25 0.75 0.50 0 0.30 0.35 0.50 0.75 0.50 0.40 0 0.75 -0.20 0.75 -0.50 0 -0.25 0.35 -0.50 0.80 -0.50 0.40 0 0.60 -0.20 0.45 -0.50 -0.15 -0.25 -0.05 -0.50 0.25 -0.50 0.35 0 0.45 -0.35 0.30 -0.80 -0.20 -0.50 -0.05 -0.70 0.30 -0.60 1.10 0.40 1.05 1.95 -0.15 3.20 -1.20 1.30 -2.10 1.45 -3.80 0.60z"/>
  <path d="M86.50 113 c-1.40 -1.40 -1.25 -2.40 0.15 -1.10 1.15 1.10 2.35 1.45 2.35 0.75 0 -0.25 0.55 -0.65 1.25 -1 1.65 -0.75 1.75 0.45 0.15 1.55 -1.50 1.05 -2.70 1 -3.90 -0.20z"/>
  <path d="M94 112.75 c-1 -1.05 -1.10 -1.45 -0.70 -2.85 0.30 -0.95 0.85 -1.70 1.40 -1.80 0.80 -0.20 0.80 -0.10 -0.10 0.80 -0.65 0.65 -0.90 1.40 -0.75 2.30 0.15 0.70 0.45 1.15 0.70 1 0.25 -0.15 0.45 0 0.45 0.25 0 0.85 1.05 0.65 1.95 -0.35 0.90 -1.05 2.55 -1.80 2.55 -1.15 0 1 -2.15 3.05 -3.20 3.05 -0.60 0 -1.65 -0.55 -2.30 -1.25z"/>
  <path d="M30.80 109.25 c0.35 -0.85 2.20 -2.05 2.20 -1.40 0 0.20 -0.60 0.80 -1.25 1.30 -1 0.75 -1.20 0.75 -0.95 0.10z"/>
  <path d="M97.20 108.75 c-0.75 -0.70 -1.10 -1.25 -0.80 -1.25 0.75 0 3.50 2.45 2.75 2.50 -0.35 0 -1.20 -0.55 -1.95 -1.25z"/>
  <path d="M35 108.50 c-0.40 -0.25 -0.60 -0.55 -0.45 -0.70 0.15 -0.15 0.70 0.05 1.25 0.45 1.05 0.80 0.40 1 -0.80 0.25z"/>
  <path d="M89.25 108.25 c-0.80 -0.40 -1.15 -0.70 -0.70 -0.75 0.40 0 1.20 0.35 1.75 0.75 1.15 0.90 0.90 0.90 -1.05 0z"/>
  <path d="M120.50 103.40 c0 -0.20 1.15 -0.40 2.55 -0.40 1.35 0 2.40 0.20 2.25 0.45 -0.35 0.55 -4.80 0.55 -4.80 -0.05z"/>
  <path d="M104.65 83.85 c0 -1.40 0.20 -2.15 0.40 -1.75 0.20 0.35 0.20 1.45 -0.05 2.40 -0.40 1.70 -0.40 1.65 -0.35 -0.65z"/>
  <path d="M85.70 38.70 c0.15 -0.45 0.30 -1.20 0.30 -1.75 0 -0.60 0.25 -0.80 0.75 -0.65 0.80 0.35 2.40 -0.70 2 -1.30 -0.30 -0.50 2.30 -2.80 3.65 -3.25 0.60 -0.15 1.10 -0.15 1.10 0 0 0.55 -7.10 7.75 -7.65 7.75 -0.25 0 -0.30 -0.35 -0.15 -0.80z"/>
  <path d="M96.75 38.45 c-0.20 -0.30 -0.15 -0.75 0.10 -1 0.25 -0.25 6.90 -0.40 15.95 -0.35 13.35 0.15 15.45 0.25 15.45 0.90 0 0.65 -2.10 0.75 -15.60 0.90 -10.95 0.05 -15.70 -0.05 -15.90 -0.45z"/>
 </g>
</svg>